<svg width="20" height="18" viewBox="0 0 20 18" fill="none" xmlns="http://www.w3.org/2000/svg">
<path fill-rule="evenodd" clip-rule="evenodd" d="M17.1714 1.91418C17.6756 1.91418 18.0857 2.32425 18.0857 2.82848C18.0857 3.33272 17.6756 3.74279 17.1714 3.74279C16.6672 3.74279 16.2571 3.33272 16.2571 2.82848C16.2571 2.32425 16.6672 1.91418 17.1714 1.91418ZM17.1714 4.65709C18.1796 4.65709 19 3.83673 19 2.82848C19 1.82024 18.1796 0.999878 17.1714 0.999878C16.1631 0.999878 15.3428 1.82024 15.3428 2.82848C15.3428 3.83673 16.1631 4.65709 17.1714 4.65709Z" fill="#000050" stroke="#000050" stroke-width="0.578582"/>
<path fill-rule="evenodd" clip-rule="evenodd" d="M2.54249 14.2571C3.04673 14.2571 3.45679 14.6672 3.45679 15.1714C3.45679 15.6757 3.04673 16.0857 2.54249 16.0857C2.03825 16.0857 1.62819 15.6757 1.62819 15.1714C1.62819 14.6672 2.03825 14.2571 2.54249 14.2571ZM2.54249 17C3.55074 17 4.37109 16.1797 4.37109 15.1714C4.37109 14.1632 3.55074 13.3428 2.54249 13.3428C1.53424 13.3428 0.713883 14.1632 0.713883 15.1714C0.713883 16.1797 1.53424 17 2.54249 17Z" fill="#000050" stroke="#000050" stroke-width="0.578582"/>
<path fill-rule="evenodd" clip-rule="evenodd" d="M3.68481 2.37134H14.1997C14.4521 2.37134 14.6569 2.57614 14.6569 2.82849C14.6569 3.08084 14.4521 3.28564 14.1997 3.28564H3.68481C2.42467 3.28564 1.39974 4.31103 1.39974 5.5714V6.25713C1.39974 7.51749 2.42513 8.54288 3.68572 8.54288H7.79985H11.228H15.5723C17.3363 8.54288 18.7715 9.97834 18.7715 11.7429V12.4287C18.7715 14.1933 17.3367 15.6287 15.573 15.6287H5.5125C5.26015 15.6287 5.05535 15.4239 5.05535 15.1716C5.05535 14.9192 5.26015 14.7144 5.5125 14.7144H15.573C16.8325 14.7144 17.8572 13.689 17.8572 12.4287V11.7429C17.8572 10.4826 16.8322 9.45719 15.5723 9.45719H11.228H7.79985H3.68572C1.92089 9.45719 0.485434 8.02173 0.485434 6.25713V5.5714C0.485434 3.80679 1.92043 2.37134 3.68481 2.37134Z" fill="#000050" stroke="#000050" stroke-width="0.578582"/>
</svg>
